<svg viewBox="0 0 32 32" fill="none" xmlns="http://www.w3.org/2000/svg">
    <path d="M15.9997 24.6668C20.7861 24.6668 24.6663 20.7866 24.6663 16.0002C24.6663 11.2137 20.7861 7.3335 15.9997 7.3335C11.2132 7.3335 7.33301 11.2137 7.33301 16.0002C7.33301 20.7866 11.2132 24.6668 15.9997 24.6668Z" stroke="currentColor" stroke-width="1.5" stroke-linecap="round" stroke-linejoin="round"/>
    <path d="M25.5203 25.5198L25.347 25.3465M25.347 6.65317L25.5203 6.47984L25.347 6.65317ZM6.48033 25.5198L6.65366 25.3465L6.48033 25.5198ZM16.0003 2.77317V2.6665V2.77317ZM16.0003 29.3332V29.2265V29.3332ZM2.77366 15.9998H2.66699H2.77366ZM29.3337 15.9998H29.227H29.3337ZM6.65366 6.65317L6.48033 6.47984L6.65366 6.65317Z" stroke="currentColor" stroke-width="2" stroke-linecap="round" stroke-linejoin="round"/>
</svg>
