<svg viewBox="0 0 32 32" fill="none" xmlns="http://www.w3.org/2000/svg">
<path d="M25.4137 24.8935L22.5604 19.2002L19.707 24.8935" stroke="currentColor" stroke-width="1.5" stroke-linecap="round" stroke-linejoin="round"/>
<path d="M20.2266 23.8799H24.9199" stroke="currentColor" stroke-width="1.5" stroke-linecap="round" stroke-linejoin="round"/>
<path d="M22.5604 29.3333C18.8271 29.3333 15.7871 26.3066 15.7871 22.5599C15.7871 18.8266 18.8138 15.7866 22.5604 15.7866C26.2938 15.7866 29.3338 18.8132 29.3338 22.5599C29.3338 26.3066 26.3071 29.3333 22.5604 29.3333Z" stroke="currentColor" stroke-width="1.5" stroke-linecap="round" stroke-linejoin="round"/>
<path d="M6.69366 2.6665H11.9203C14.6803 2.6665 16.0137 3.99986 15.947 6.6932V11.9198C16.0137 14.6798 14.6803 16.0132 11.9203 15.9465H6.69366C4.00033 15.9999 2.66699 14.6665 2.66699 11.9065V6.67985C2.66699 3.99985 4.00033 2.6665 6.69366 2.6665Z" stroke="currentColor" stroke-width="1.5" stroke-linecap="round" stroke-linejoin="round"/>
<path d="M12.0139 7.80029H6.60059" stroke="currentColor" stroke-width="1.5" stroke-linecap="round" stroke-linejoin="round"/>
<path d="M9.29395 6.89355V7.80021" stroke="currentColor" stroke-width="1.5" stroke-linecap="round" stroke-linejoin="round"/>
<path d="M10.6536 7.78711C10.6536 10.1204 8.82691 12.0138 6.58691 12.0138" stroke="currentColor" stroke-width="1.5" stroke-linecap="round" stroke-linejoin="round"/>
<path d="M12.0135 12.0137C11.0402 12.0137 10.1602 11.4937 9.54688 10.667" stroke="currentColor" stroke-width="1.5" stroke-linecap="round" stroke-linejoin="round"/>
<path d="M2.66699 20C2.66699 25.16 6.84033 29.3333 12.0003 29.3333L10.6003 27" stroke="currentColor" stroke-width="1.5" stroke-linecap="round" stroke-linejoin="round"/>
<path d="M29.3333 11.9998C29.3333 6.83984 25.16 2.6665 20 2.6665L21.4 4.99984" stroke="currentColor" stroke-width="1.5" stroke-linecap="round" stroke-linejoin="round"/>
</svg>
