<svg width="134" height="455" viewBox="0 0 134 455" fill="none" xmlns="http://www.w3.org/2000/svg">
<path d="M70.5988 154.821C70.6085 154.937 70.6207 155.05 70.6514 155.149C70.6823 155.249 70.7318 155.329 70.8042 155.383C70.8767 155.437 70.9674 155.461 71.0718 155.462C71.1758 155.463 71.2876 155.442 71.4012 155.418C71.4012 155.418 71.4012 155.418 71.4012 155.418C73.6739 154.901 75.864 154.351 77.9716 153.767C94.5182 149.069 106.83 141.286 114.969 130.334C125.615 116.009 131.763 98.4637 133.53 77.5262C133.699 75.4779 133.836 73.3846 133.902 71.2978C133.905 71.1824 133.902 71.0669 133.874 70.9621C133.845 70.8572 133.791 70.7706 133.713 70.7125C133.635 70.6545 133.536 70.6284 133.428 70.6313C133.319 70.6344 133.208 70.6651 133.098 70.7022C133.098 70.7022 133.098 70.7022 133.098 70.7022C131.121 71.3709 129.157 72.1084 127.247 72.8641C107.723 80.6154 92.7051 91.5563 82.0618 105.878C73.9253 116.826 70.0223 130.856 70.2879 148.054C70.336 150.24 70.4396 152.496 70.5988 154.821Z" fill="#6A5ECB" fill-opacity="0.28"/>
<path d="M70.5988 218.821C70.6085 218.937 70.6207 219.05 70.6514 219.149C70.6823 219.249 70.7318 219.329 70.8042 219.383C70.8767 219.437 70.9674 219.461 71.0718 219.462C71.1758 219.463 71.2876 219.442 71.4012 219.418C71.4012 219.418 71.4012 219.418 71.4012 219.418C73.6739 218.901 75.864 218.351 77.9716 217.767C94.5182 213.069 106.83 205.286 114.969 194.334C125.615 180.009 131.763 162.464 133.53 141.526C133.699 139.478 133.836 137.385 133.902 135.298C133.905 135.182 133.902 135.067 133.874 134.962C133.845 134.857 133.791 134.771 133.713 134.713C133.635 134.654 133.536 134.628 133.428 134.631C133.319 134.634 133.208 134.665 133.098 134.702C133.098 134.702 133.098 134.702 133.098 134.702C131.121 135.371 129.157 136.108 127.247 136.864C107.723 144.615 92.7051 155.556 82.0618 169.878C73.9253 180.826 70.0223 194.856 70.2879 212.054C70.336 214.24 70.4396 216.496 70.5988 218.821Z" fill="#6A5ECB" fill-opacity="0.28"/>
<path d="M70.5988 282.821C70.6085 282.937 70.6207 283.05 70.6514 283.149C70.6823 283.249 70.7318 283.329 70.8042 283.383C70.8767 283.437 70.9674 283.461 71.0718 283.462C71.1758 283.463 71.2876 283.442 71.4012 283.418C71.4012 283.418 71.4012 283.418 71.4012 283.418C73.6739 282.901 75.864 282.351 77.9716 281.767C94.5182 277.069 106.83 269.286 114.969 258.334C125.615 244.009 131.763 226.464 133.53 205.526C133.699 203.478 133.836 201.385 133.902 199.298C133.905 199.182 133.902 199.067 133.874 198.962C133.845 198.857 133.791 198.771 133.713 198.713C133.635 198.654 133.536 198.628 133.428 198.631C133.319 198.634 133.208 198.665 133.098 198.702C133.098 198.702 133.098 198.702 133.098 198.702C131.121 199.371 129.157 200.108 127.247 200.864C107.723 208.615 92.7051 219.556 82.0618 233.878C73.9253 244.826 70.0223 258.856 70.2879 276.054C70.336 278.24 70.4396 280.496 70.5988 282.821Z" fill="#6A5ECB" fill-opacity="0.28"/>
<path d="M70.5988 346.819C70.6085 346.935 70.6207 347.048 70.6514 347.147C70.6823 347.247 70.7318 347.327 70.8042 347.381C70.8767 347.435 70.9674 347.459 71.0718 347.46C71.1758 347.461 71.2876 347.44 71.4012 347.416C71.4012 347.416 71.4012 347.416 71.4012 347.416C73.6739 346.899 75.864 346.349 77.9716 345.765C94.5182 341.067 106.83 333.284 114.969 322.332C125.615 308.007 131.763 290.462 133.53 269.524C133.699 267.476 133.836 265.383 133.902 263.296C133.905 263.18 133.902 263.065 133.874 262.96C133.845 262.855 133.791 262.769 133.713 262.711C133.635 262.653 133.536 262.626 133.428 262.629C133.319 262.632 133.208 262.663 133.098 262.7C133.098 262.7 133.098 262.7 133.098 262.7C131.121 263.369 129.157 264.106 127.247 264.862C107.723 272.613 92.7051 283.554 82.0618 297.876C73.9253 308.825 70.0223 322.854 70.2879 340.052C70.336 342.238 70.4396 344.494 70.5988 346.819Z" fill="#6A5ECB" fill-opacity="0.28"/>
<path d="M63.9012 154.821C63.8915 154.937 63.8793 155.05 63.8486 155.149C63.8177 155.249 63.7682 155.329 63.6958 155.383C63.6233 155.437 63.5326 155.461 63.4282 155.462C63.3242 155.463 63.2124 155.442 63.0988 155.418C63.0988 155.418 63.0988 155.418 63.0988 155.418C60.8261 154.901 58.636 154.351 56.5284 153.767C39.9818 149.069 27.6696 141.286 19.5307 130.334C8.88471 116.009 2.73712 98.4637 0.970378 77.5262C0.800539 75.4779 0.663625 73.3846 0.598345 71.2978C0.594647 71.1824 0.597541 71.0669 0.626221 70.9621C0.655039 70.8572 0.708569 70.7706 0.786883 70.7125C0.865197 70.6545 0.963634 70.6284 1.07239 70.6313C1.181 70.6344 1.29231 70.6651 1.40166 70.7022C1.40166 70.7022 1.40166 70.7022 1.40166 70.7022C3.37929 71.3709 5.34254 72.1084 7.2533 72.8641C26.777 80.6154 41.7949 91.5563 52.4382 105.878C60.5747 116.826 64.4777 130.856 64.2121 148.054C64.164 150.24 64.0604 152.496 63.9012 154.821Z" fill="#6A5ECB" fill-opacity="0.28"/>
<path d="M63.9012 218.821C63.8915 218.937 63.8793 219.05 63.8486 219.149C63.8177 219.249 63.7682 219.329 63.6958 219.383C63.6233 219.437 63.5326 219.461 63.4282 219.462C63.3242 219.463 63.2124 219.442 63.0988 219.418C63.0988 219.418 63.0988 219.418 63.0988 219.418C60.8261 218.901 58.636 218.351 56.5284 217.767C39.9818 213.069 27.6696 205.286 19.5307 194.334C8.88471 180.009 2.73712 162.464 0.970378 141.526C0.800539 139.478 0.663625 137.385 0.598345 135.298C0.594647 135.182 0.597541 135.067 0.626221 134.962C0.655039 134.857 0.708569 134.771 0.786883 134.713C0.865197 134.654 0.963634 134.628 1.07239 134.631C1.181 134.634 1.29231 134.665 1.40166 134.702C1.40166 134.702 1.40166 134.702 1.40166 134.702C3.37929 135.371 5.34254 136.108 7.2533 136.864C26.777 144.615 41.7949 155.556 52.4382 169.878C60.5747 180.826 64.4777 194.856 64.2121 212.054C64.164 214.24 64.0604 216.496 63.9012 218.821Z" fill="#6A5ECB" fill-opacity="0.28"/>
<path d="M63.9012 282.821C63.8915 282.937 63.8793 283.05 63.8486 283.149C63.8177 283.249 63.7682 283.329 63.6958 283.383C63.6233 283.437 63.5326 283.461 63.4282 283.462C63.3242 283.463 63.2124 283.442 63.0988 283.418C63.0988 283.418 63.0988 283.418 63.0988 283.418C60.8261 282.901 58.636 282.351 56.5284 281.767C39.9818 277.069 27.6696 269.286 19.5307 258.334C8.88471 244.009 2.73712 226.464 0.970378 205.526C0.800539 203.478 0.663625 201.385 0.598345 199.298C0.594647 199.182 0.597541 199.067 0.626221 198.962C0.655039 198.857 0.708569 198.771 0.786883 198.713C0.865197 198.654 0.963634 198.628 1.07239 198.631C1.181 198.634 1.29231 198.665 1.40166 198.702C1.40166 198.702 1.40166 198.702 1.40166 198.702C3.37929 199.371 5.34254 200.108 7.2533 200.864C26.777 208.615 41.7949 219.556 52.4382 233.878C60.5747 244.826 64.4777 258.856 64.2121 276.054C64.164 278.24 64.0604 280.496 63.9012 282.821Z" fill="#6A5ECB" fill-opacity="0.28"/>
<path d="M63.9012 346.819C63.8915 346.935 63.8793 347.048 63.8486 347.147C63.8177 347.247 63.7682 347.327 63.6958 347.381C63.6233 347.435 63.5326 347.459 63.4282 347.46C63.3242 347.461 63.2124 347.44 63.0988 347.416C63.0988 347.416 63.0988 347.416 63.0988 347.416C60.8261 346.899 58.636 346.349 56.5284 345.765C39.9818 341.067 27.6696 333.284 19.5307 322.332C8.88471 308.007 2.73712 290.462 0.970378 269.524C0.800539 267.476 0.663625 265.383 0.598345 263.296C0.594647 263.18 0.597541 263.065 0.626221 262.96C0.655039 262.855 0.708569 262.769 0.786883 262.711C0.865197 262.653 0.963634 262.626 1.07239 262.629C1.181 262.632 1.29231 262.663 1.40166 262.7C1.40166 262.7 1.40166 262.7 1.40166 262.7C3.37929 263.369 5.34254 264.106 7.2533 264.862C26.777 272.613 41.7949 283.554 52.4382 297.876C60.5747 308.825 64.4777 322.854 64.2121 340.052C64.164 342.238 64.0604 344.494 63.9012 346.819Z" fill="#6A5ECB" fill-opacity="0.28"/>
<path d="M67.4631 105.798C67.3857 105.884 67.308 105.967 67.2238 106.028C67.1392 106.09 67.0517 106.124 66.9614 106.123C66.8711 106.123 66.7839 106.088 66.6999 106.026C66.6163 105.964 66.5395 105.88 66.4631 105.793C66.4631 105.793 66.4631 105.793 66.4631 105.793C64.9569 104.014 63.5367 102.258 62.2025 100.525C51.7974 86.8288 46.6308 73.21 46.7039 59.5655C46.7999 41.7176 52.4262 23.9984 63.5927 6.19932C64.6874 4.45988 65.8356 2.70421 67.0372 0.996734C67.1035 0.902258 67.1752 0.811704 67.2611 0.745153C67.3472 0.678603 67.442 0.641519 67.5395 0.642154C67.637 0.64279 67.7313 0.681107 67.8165 0.748773C67.9015 0.816437 67.972 0.907918 68.0371 1.00325C68.0371 1.00325 68.0371 1.00325 68.0371 1.00325C69.2164 2.72589 70.3427 4.49496 71.4162 6.24707C82.3669 24.1731 87.7993 41.9418 87.7034 59.7852C87.6303 73.4256 82.3219 86.9856 71.7772 100.574C70.4253 102.293 68.9873 104.034 67.4631 105.798Z" fill="#6A5ECB" fill-opacity="0.28"/>
<path d="M67 453.5L67 104" stroke="#6A5ECB" stroke-opacity="0.28" stroke-width="2" stroke-linecap="round"/>
</svg>
